<?xml version="1.0" encoding="UTF-8"?><svg id="Layer_1" xmlns="http://www.w3.org/2000/svg" viewBox="0 0 46.5 28"><path d="m39.18,3.89h-14c-1.66,0-3,1.34-3,3v14c0,1.66,1.34,3,3,3h14c.16,0,.33-.02.49-.05l.3-.07h.12l.37-.14.13-.07c.1-.06.21-.11.31-.18.13-.1.26-.21.38-.32l.07-.09c.1-.1.19-.21.27-.32l.09-.13c.07-.11.13-.23.18-.35.03-.05.05-.1.07-.15.05-.12.08-.25.12-.38v-.15c.06-.2.09-.4.1-.6V6.89c0-1.66-1.34-3-3-3Zm-14,18c-.55,0-1-.45-1-1v-4.31l3.29-3.3h0c.39-.39,1.02-.39,1.41,0,0,0,0,0,0,0l8.6,8.61h-12.31Zm15-1c0,.12-.02.25-.07.36-.02.05-.05.1-.08.14-.03.04-.06.08-.09.12l-5.35-5.35.88-.88c.39-.39,1.02-.39,1.41,0,0,0,0,0,0,0h0l3.29,3.3v2.31Zm0-5.14l-1.88-1.86c-1.19-1.13-3.05-1.13-4.24,0l-.88.88-2.88-2.88c-1.19-1.13-3.05-1.13-4.24,0l-1.88,1.86v-6.86c0-.55.45-1,1-1h14c.55,0,1,.45,1,1v8.86Zm-6.5-7.86c-.83,0-1.5.67-1.5,1.5s.67,1.5,1.5,1.5,1.5-.67,1.5-1.5-.67-1.5-1.5-1.5Z" style="stroke-width:0px;"/><rect x="4.5" y="7.5" width="15" height="2" rx="1" ry="1" style="stroke-width:0px;"/><rect x="4.5" y="11.5" width="15" height="2" rx="1" ry="1" style="stroke-width:0px;"/><rect x="4.5" y="15.5" width="15" height="2" rx="1" ry="1" style="stroke-width:0px;"/><rect x="4.5" y="19.5" width="10.31" height="2" rx="1" ry="1" style="stroke-width:0px;"/><rect x="1" y="1" width="44.5" height="26" rx="5.9" ry="5.9" style="fill:none; stroke:#000; stroke-miterlimit:10; stroke-width:2px;"/></svg>